<!DOCTYPE html>
<html lang="en">
  <head>
    <title>inktober experiment</title>
    <meta charset="utf-8">
    <meta http-equiv="X-UA-Compatible" content="IE=edge">
    <meta name="viewport" content="width=device-width, initial-scale=1">
    <link rel="stylesheet" href="style.css">
    <script src="sheriff.js"></script>
    <script src="https://cdn.jsdelivr.net/npm/@magenta/music@1.2"></script>
    <style>
      .an-art {
        display: block;
        height: 380px;
        width: 370px;
        position: relative;
        padding: 0;
      }
      .inset {
        background: white;
      }
      #one, #two {
        position: absolute;
        top: 24px;
        left: 24px;
      }
      @media screen and (max-width: 700px) {
        .an-art {
          height: 360px;
          width: 350px;
        }
        #one, #two {
          left: 34px;
        }
      }
      @media screen and (max-width: 400px) {
        .an-art {
          height: 320px;
          width: 100%;
        }
      }
      
      #two { display: none; }

      .dance-one { animation: dance-one 1.0s steps(1) infinite; }
      .dance-two { display: block !important; animation: dance-two 1.0s steps(1) infinite; }
      
      @keyframes dance-one { 0% { opacity: 1; } 50% { opacity: 0; }}
      @keyframes dance-two { 0% { opacity: 0; } 50% { opacity: 1; }}
    </style>
  </head>
  <body>
    <h1>#inktober: an experiment</h1>
    <div id="wrapper" class="an-art" title="I'm starting with the 'I'm the sheriff of circle-punch', and adding a feature every day. To see the previous days, look at the Glitch code or go to howthee/day-x.html. The audio is made with Magenta and Music VAE, by @adarob!">
      <pre id="one" class="inset"></pre>
      <pre id="two" class="inset"></pre>
    </div>
    <div class="an-art-label">
      <button class="action" onclick="window.location = `./day-${today-1}.html`">🔙</button>
      <div>
        <b>Day 15</b>: The Music Don't Start 'til You Mouse In
      </div>
      <button class="action" onclick="window.location = `./day-${today+1}.html`">🔜</button>
    </div>

    <footer>
      <hr>
      <h3>a weird art experiment by <a href="https://twitter.com/notwaldorf">monica</a></h3>
    </footer>
  </body>
  <script>
    const today = 15;
    one.innerHTML = getSheriff('🎧');
    two.innerHTML = getDanceSheriff('🎧');
   
    const player = new mm.Player();
    // Thanks @adarob!
    const seq = JSON.parse('{"ticksPerQuarter":220,"timeSignatures":[{"time":0,"numerator":4,"denominator":4}],"tempos":[{"time":0,"qpm":120}],"notes":[{"pitch":59,"velocity":100,"startTime":0,"endTime":0.375,"instrument":0,"program":0,"isDrum":false},{"pitch":71,"velocity":100,"startTime":0.375,"endTime":0.625,"instrument":0,"program":0,"isDrum":false},{"pitch":59,"velocity":100,"startTime":0.625,"endTime":0.75,"instrument":0,"program":0,"isDrum":false},{"pitch":63,"velocity":100,"startTime":0.75,"endTime":0.875,"instrument":0,"program":0,"isDrum":false},{"pitch":71,"velocity":100,"startTime":1,"endTime":1.5,"instrument":0,"program":0,"isDrum":false},{"pitch":70,"velocity":100,"startTime":1.5,"endTime":1.75,"instrument":0,"program":0,"isDrum":false},{"pitch":68,"velocity":100,"startTime":1.75,"endTime":2,"instrument":0,"program":0,"isDrum":false},{"pitch":73,"velocity":100,"startTime":2,"endTime":2.625,"instrument":0,"program":0,"isDrum":false},{"pitch":73,"velocity":100,"startTime":2.75,"endTime":3,"instrument":0,"program":0,"isDrum":false},{"pitch":75,"velocity":100,"startTime":3,"endTime":3.375,"instrument":0,"program":0,"isDrum":false},{"pitch":78,"velocity":100,"startTime":3.5,"endTime":3.75,"instrument":0,"program":0,"isDrum":false},{"pitch":75,"velocity":100,"startTime":3.75,"endTime":3.875,"instrument":0,"program":0,"isDrum":false},{"pitch":70,"velocity":100,"startTime":4,"endTime":4.625,"instrument":0,"program":0,"isDrum":false},{"pitch":61,"velocity":100,"startTime":4.625,"endTime":4.75,"instrument":0,"program":0,"isDrum":false},{"pitch":63,"velocity":100,"startTime":4.75,"endTime":4.875,"instrument":0,"program":0,"isDrum":false},{"pitch":70,"velocity":100,"startTime":5,"endTime":5.75,"instrument":0,"program":0,"isDrum":false},{"pitch":61,"velocity":100,"startTime":5.75,"endTime":5.875,"instrument":0,"program":0,"isDrum":false},{"pitch":70,"velocity":100,"startTime":6,"endTime":6.5,"instrument":0,"program":0,"isDrum":false},{"pitch":61,"velocity":100,"startTime":6.5,"endTime":6.625,"instrument":0,"program":0,"isDrum":false},{"pitch":66,"velocity":100,"startTime":6.625,"endTime":6.75,"instrument":0,"program":0,"isDrum":false},{"pitch":70,"velocity":100,"startTime":6.75,"endTime":6.875,"instrument":0,"program":0,"isDrum":false},{"pitch":73,"velocity":100,"startTime":6.875,"endTime":7,"instrument":0,"program":0,"isDrum":false},{"pitch":75,"velocity":100,"startTime":7,"endTime":7.75,"instrument":0,"program":0,"isDrum":false},{"pitch":70,"velocity":100,"startTime":8,"endTime":8.75,"instrument":0,"program":0,"isDrum":false},{"pitch":73,"velocity":100,"startTime":8.75,"endTime":8.875,"instrument":0,"program":0,"isDrum":false},{"pitch":73,"velocity":100,"startTime":9,"endTime":9.75,"instrument":0,"program":0,"isDrum":false},{"pitch":73,"velocity":100,"startTime":9.75,"endTime":9.875,"instrument":0,"program":0,"isDrum":false},{"pitch":73,"velocity":100,"startTime":9.875,"endTime":10,"instrument":0,"program":0,"isDrum":false},{"pitch":73,"velocity":100,"startTime":10,"endTime":10.125,"instrument":0,"program":0,"isDrum":false},{"pitch":73,"velocity":100,"startTime":10.5,"endTime":10.625,"instrument":0,"program":0,"isDrum":false},{"pitch":73,"velocity":100,"startTime":10.75,"endTime":10.875,"instrument":0,"program":0,"isDrum":false},{"pitch":73,"velocity":100,"startTime":10.875,"endTime":11,"instrument":0,"program":0,"isDrum":false},{"pitch":73,"velocity":100,"startTime":11,"endTime":11.5,"instrument":0,"program":0,"isDrum":false},{"pitch":73,"velocity":100,"startTime":11.5,"endTime":11.75,"instrument":0,"program":0,"isDrum":false},{"pitch":73,"velocity":100,"startTime":11.75,"endTime":11.875,"instrument":0,"program":0,"isDrum":false},{"pitch":73,"velocity":100,"startTime":11.875,"endTime":12,"instrument":0,"program":0,"isDrum":false},{"pitch":73,"velocity":100,"startTime":12,"endTime":12.75,"instrument":0,"program":0,"isDrum":false},{"pitch":73,"velocity":100,"startTime":12.75,"endTime":12.875,"instrument":0,"program":0,"isDrum":false},{"pitch":68,"velocity":100,"startTime":12.875,"endTime":13,"instrument":0,"program":0,"isDrum":false},{"pitch":73,"velocity":100,"startTime":13,"endTime":13.375,"instrument":0,"program":0,"isDrum":false},{"pitch":65,"velocity":100,"startTime":13.375,"endTime":13.5,"instrument":0,"program":0,"isDrum":false},{"pitch":73,"velocity":100,"startTime":13.5,"endTime":13.75,"instrument":0,"program":0,"isDrum":false},{"pitch":65,"velocity":100,"startTime":13.75,"endTime":13.875,"instrument":0,"program":0,"isDrum":false},{"pitch":73,"velocity":100,"startTime":14,"endTime":14.625,"instrument":0,"program":0,"isDrum":false},{"pitch":61,"velocity":100,"startTime":14.625,"endTime":14.75,"instrument":0,"program":0,"isDrum":false},{"pitch":65,"velocity":100,"startTime":14.75,"endTime":14.875,"instrument":0,"program":0,"isDrum":false},{"pitch":73,"velocity":100,"startTime":14.875,"endTime":15,"instrument":0,"program":0,"isDrum":false},{"pitch":73,"velocity":100,"startTime":15,"endTime":15.25,"instrument":0,"program":0,"isDrum":false},{"pitch":61,"velocity":100,"startTime":15.25,"endTime":15.375,"instrument":0,"program":0,"isDrum":false},{"pitch":65,"velocity":100,"startTime":15.375,"endTime":15.5,"instrument":0,"program":0,"isDrum":false},{"pitch":73,"velocity":100,"startTime":15.5,"endTime":15.75,"instrument":0,"program":0,"isDrum":false},{"pitch":61,"velocity":100,"startTime":15.75,"endTime":15.875,"instrument":0,"program":0,"isDrum":false},{"pitch":65,"velocity":100,"startTime":15.875,"endTime":16,"instrument":0,"program":0,"isDrum":false},{"pitch":70,"velocity":100,"startTime":16,"endTime":16.625,"instrument":0,"program":0,"isDrum":false},{"pitch":61,"velocity":100,"startTime":16.625,"endTime":16.75,"instrument":0,"program":0,"isDrum":false},{"pitch":65,"velocity":100,"startTime":16.75,"endTime":16.875,"instrument":0,"program":0,"isDrum":false},{"pitch":68,"velocity":100,"startTime":16.875,"endTime":17,"instrument":0,"program":0,"isDrum":false},{"pitch":72,"velocity":100,"startTime":17,"endTime":17.75,"instrument":0,"program":0,"isDrum":false},{"pitch":63,"velocity":100,"startTime":17.75,"endTime":17.875,"instrument":0,"program":0,"isDrum":false},{"pitch":65,"velocity":100,"startTime":17.875,"endTime":18,"instrument":0,"program":0,"isDrum":false},{"pitch":70,"velocity":100,"startTime":18,"endTime":18.375,"instrument":0,"program":0,"isDrum":false},{"pitch":61,"velocity":100,"startTime":18.375,"endTime":18.5,"instrument":0,"program":0,"isDrum":false},{"pitch":70,"velocity":100,"startTime":18.5,"endTime":18.625,"instrument":0,"program":0,"isDrum":false},{"pitch":65,"velocity":100,"startTime":18.625,"endTime":18.75,"instrument":0,"program":0,"isDrum":false},{"pitch":61,"velocity":100,"startTime":18.75,"endTime":18.875,"instrument":0,"program":0,"isDrum":false},{"pitch":70,"velocity":100,"startTime":19,"endTime":19.375,"instrument":0,"program":0,"isDrum":false},{"pitch":61,"velocity":100,"startTime":19.375,"endTime":19.5,"instrument":0,"program":0,"isDrum":false},{"pitch":70,"velocity":100,"startTime":19.5,"endTime":19.75,"instrument":0,"program":0,"isDrum":false},{"pitch":61,"velocity":100,"startTime":19.75,"endTime":19.875,"instrument":0,"program":0,"isDrum":false},{"pitch":73,"velocity":100,"startTime":20,"endTime":20.75,"instrument":0,"program":0,"isDrum":false},{"pitch":73,"velocity":100,"startTime":20.75,"endTime":20.875,"instrument":0,"program":0,"isDrum":false},{"pitch":72,"velocity":100,"startTime":21,"endTime":21.75,"instrument":0,"program":0,"isDrum":false},{"pitch":68,"velocity":100,"startTime":21.75,"endTime":21.875,"instrument":0,"program":0,"isDrum":false},{"pitch":73,"velocity":100,"startTime":22,"endTime":22.625,"instrument":0,"program":0,"isDrum":false},{"pitch":61,"velocity":100,"startTime":22.625,"endTime":22.75,"instrument":0,"program":0,"isDrum":false},{"pitch":65,"velocity":100,"startTime":22.75,"endTime":22.875,"instrument":0,"program":0,"isDrum":false},{"pitch":68,"velocity":100,"startTime":22.875,"endTime":23,"instrument":0,"program":0,"isDrum":false},{"pitch":73,"velocity":100,"startTime":23,"endTime":23.75,"instrument":0,"program":0,"isDrum":false},{"pitch":73,"velocity":100,"startTime":24,"endTime":26,"instrument":0,"program":0,"isDrum":false},{"pitch":65,"velocity":100,"startTime":26,"endTime":27,"instrument":0,"program":0,"isDrum":false},{"pitch":66,"velocity":100,"startTime":27,"endTime":27.875,"instrument":0,"program":0,"isDrum":false},{"pitch":73,"velocity":100,"startTime":28,"endTime":29,"instrument":0,"program":0,"isDrum":false},{"pitch":72,"velocity":100,"startTime":29,"endTime":29.75,"instrument":0,"program":0,"isDrum":false},{"pitch":70,"velocity":100,"startTime":30,"endTime":30.25,"instrument":0,"program":0,"isDrum":false},{"pitch":73,"velocity":100,"startTime":30.25,"endTime":30.375,"instrument":0,"program":0,"isDrum":false},{"pitch":77,"velocity":100,"startTime":30.375,"endTime":30.75,"instrument":0,"program":0,"isDrum":false},{"pitch":77,"velocity":100,"startTime":30.75,"endTime":31,"instrument":0,"program":0,"isDrum":false},{"pitch":73,"velocity":100,"startTime":31,"endTime":31.25,"instrument":0,"program":0,"isDrum":false},{"pitch":75,"velocity":100,"startTime":31.25,"endTime":31.375,"instrument":0,"program":0,"isDrum":false},{"pitch":77,"velocity":100,"startTime":31.5,"endTime":31.75,"instrument":0,"program":0,"isDrum":false},{"pitch":78,"velocity":100,"startTime":31.75,"endTime":31.875,"instrument":0,"program":0,"isDrum":false},{"pitch":34,"velocity":100,"startTime":2,"endTime":2.625,"instrument":1,"program":32,"isDrum":false},{"pitch":34,"velocity":100,"startTime":2.75,"endTime":2.875,"instrument":1,"program":32,"isDrum":false},{"pitch":34,"velocity":100,"startTime":3,"endTime":3.875,"instrument":1,"program":32,"isDrum":false},{"pitch":37,"velocity":100,"startTime":4,"endTime":4.625,"instrument":1,"program":32,"isDrum":false},{"pitch":37,"velocity":100,"startTime":4.75,"endTime":5,"instrument":1,"program":32,"isDrum":false},{"pitch":39,"velocity":100,"startTime":5,"endTime":5.625,"instrument":1,"program":32,"isDrum":false},{"pitch":39,"velocity":100,"startTime":5.75,"endTime":5.875,"instrument":1,"program":32,"isDrum":false},{"pitch":34,"velocity":100,"startTime":6,"endTime":6.625,"instrument":1,"program":32,"isDrum":false},{"pitch":34,"velocity":100,"startTime":6.75,"endTime":7,"instrument":1,"program":32,"isDrum":false},{"pitch":41,"velocity":100,"startTime":7,"endTime":7.625,"instrument":1,"program":32,"isDrum":false},{"pitch":41,"velocity":100,"startTime":7.75,"endTime":8,"instrument":1,"program":32,"isDrum":false},{"pitch":37,"velocity":100,"startTime":8,"endTime":8.625,"instrument":1,"program":32,"isDrum":false},{"pitch":37,"velocity":100,"startTime":8.75,"endTime":8.875,"instrument":1,"program":32,"isDrum":false},{"pitch":39,"velocity":100,"startTime":9,"endTime":9.625,"instrument":1,"program":32,"isDrum":false},{"pitch":39,"velocity":100,"startTime":9.75,"endTime":10,"instrument":1,"program":32,"isDrum":false},{"pitch":37,"velocity":100,"startTime":10,"endTime":10.625,"instrument":1,"program":32,"isDrum":false},{"pitch":37,"velocity":100,"startTime":10.75,"endTime":11,"instrument":1,"program":32,"isDrum":false},{"pitch":39,"velocity":100,"startTime":11,"endTime":11.375,"instrument":1,"program":32,"isDrum":false},{"pitch":39,"velocity":100,"startTime":11.5,"endTime":11.75,"instrument":1,"program":32,"isDrum":false},{"pitch":34,"velocity":100,"startTime":12,"endTime":12.625,"instrument":1,"program":32,"isDrum":false},{"pitch":34,"velocity":100,"startTime":12.75,"endTime":12.875,"instrument":1,"program":32,"isDrum":false},{"pitch":34,"velocity":100,"startTime":13,"endTime":13.25,"instrument":1,"program":32,"isDrum":false},{"pitch":34,"velocity":100,"startTime":13.375,"endTime":13.5,"instrument":1,"program":32,"isDrum":false},{"pitch":46,"velocity":100,"startTime":13.5,"endTime":13.75,"instrument":1,"program":32,"isDrum":false},{"pitch":34,"velocity":100,"startTime":13.75,"endTime":14.625,"instrument":1,"program":32,"isDrum":false},{"pitch":37,"velocity":100,"startTime":14.75,"endTime":14.875,"instrument":1,"program":32,"isDrum":false},{"pitch":32,"velocity":100,"startTime":14.875,"endTime":15,"instrument":1,"program":32,"isDrum":false},{"pitch":37,"velocity":100,"startTime":15,"endTime":15.375,"instrument":1,"program":32,"isDrum":false},{"pitch":37,"velocity":100,"startTime":15.5,"endTime":15.75,"instrument":1,"program":32,"isDrum":false},{"pitch":39,"velocity":100,"startTime":15.75,"endTime":16.625,"instrument":1,"program":32,"isDrum":false},{"pitch":39,"velocity":100,"startTime":16.75,"endTime":16.875,"instrument":1,"program":32,"isDrum":false},{"pitch":44,"velocity":100,"startTime":17,"endTime":17.625,"instrument":1,"program":32,"isDrum":false},{"pitch":44,"velocity":100,"startTime":17.75,"endTime":17.875,"instrument":1,"program":32,"isDrum":false},{"pitch":37,"velocity":100,"startTime":18,"endTime":18.625,"instrument":1,"program":32,"isDrum":false},{"pitch":37,"velocity":100,"startTime":18.75,"endTime":18.875,"instrument":1,"program":32,"isDrum":false},{"pitch":39,"velocity":100,"startTime":19,"endTime":19.625,"instrument":1,"program":32,"isDrum":false},{"pitch":39,"velocity":100,"startTime":19.75,"endTime":19.875,"instrument":1,"program":32,"isDrum":false},{"pitch":34,"velocity":100,"startTime":20,"endTime":20.875,"instrument":1,"program":32,"isDrum":false},{"pitch":41,"velocity":100,"startTime":21,"endTime":21.875,"instrument":1,"program":32,"isDrum":false},{"pitch":34,"velocity":100,"startTime":22,"endTime":23.5,"instrument":1,"program":32,"isDrum":false},{"pitch":34,"velocity":100,"startTime":26,"endTime":26.75,"instrument":1,"program":32,"isDrum":false},{"pitch":46,"velocity":100,"startTime":26.875,"endTime":27,"instrument":1,"program":32,"isDrum":false},{"pitch":34,"velocity":100,"startTime":27,"endTime":27.125,"instrument":1,"program":32,"isDrum":false},{"pitch":34,"velocity":100,"startTime":27.25,"endTime":27.375,"instrument":1,"program":32,"isDrum":false},{"pitch":41,"velocity":100,"startTime":27.5,"endTime":27.625,"instrument":1,"program":32,"isDrum":false},{"pitch":46,"velocity":100,"startTime":27.625,"endTime":27.75,"instrument":1,"program":32,"isDrum":false},{"pitch":37,"velocity":100,"startTime":27.875,"endTime":28.5,"instrument":1,"program":32,"isDrum":false},{"pitch":37,"velocity":100,"startTime":28.625,"endTime":28.75,"instrument":1,"program":32,"isDrum":false},{"pitch":44,"velocity":100,"startTime":28.75,"endTime":28.875,"instrument":1,"program":32,"isDrum":false},{"pitch":49,"velocity":100,"startTime":28.875,"endTime":29.375,"instrument":1,"program":32,"isDrum":false},{"pitch":32,"velocity":100,"startTime":29.375,"endTime":29.75,"instrument":1,"program":32,"isDrum":false},{"pitch":37,"velocity":100,"startTime":30.75,"endTime":30.875,"instrument":1,"program":32,"isDrum":false},{"pitch":37,"velocity":100,"startTime":30.875,"endTime":31,"instrument":1,"program":32,"isDrum":false},{"pitch":37,"velocity":100,"startTime":31.125,"endTime":31.375,"instrument":1,"program":32,"isDrum":false},{"pitch":39,"velocity":100,"startTime":31.5,"endTime":31.75,"instrument":1,"program":32,"isDrum":false},{"pitch":39,"velocity":100,"startTime":31.75,"endTime":31.875,"instrument":1,"program":32,"isDrum":false},{"pitch":36,"velocity":100,"startTime":0,"endTime":0.125,"instrument":2,"program":0,"isDrum":true},{"pitch":42,"velocity":100,"startTime":0,"endTime":0.125,"instrument":2,"program":0,"isDrum":true},{"pitch":42,"velocity":100,"startTime":0.25,"endTime":0.375,"instrument":2,"program":0,"isDrum":true},{"pitch":42,"velocity":100,"startTime":0.375,"endTime":0.5,"instrument":2,"program":0,"isDrum":true},{"pitch":42,"velocity":100,"startTime":0.5,"endTime":0.625,"instrument":2,"program":0,"isDrum":true},{"pitch":42,"velocity":100,"startTime":0.625,"endTime":0.75,"instrument":2,"program":0,"isDrum":true},{"pitch":38,"velocity":100,"startTime":0.75,"endTime":0.875,"instrument":2,"program":0,"isDrum":true},{"pitch":42,"velocity":100,"startTime":0.75,"endTime":0.875,"instrument":2,"program":0,"isDrum":true},{"pitch":42,"velocity":100,"startTime":1,"endTime":1.125,"instrument":2,"program":0,"isDrum":true},{"pitch":42,"velocity":100,"startTime":1.25,"endTime":1.375,"instrument":2,"program":0,"isDrum":true},{"pitch":42,"velocity":100,"startTime":1.375,"endTime":1.5,"instrument":2,"program":0,"isDrum":true},{"pitch":38,"velocity":100,"startTime":1.5,"endTime":1.625,"instrument":2,"program":0,"isDrum":true},{"pitch":42,"velocity":100,"startTime":1.5,"endTime":1.625,"instrument":2,"program":0,"isDrum":true},{"pitch":42,"velocity":100,"startTime":1.75,"endTime":1.875,"instrument":2,"program":0,"isDrum":true},{"pitch":36,"velocity":100,"startTime":2,"endTime":2.125,"instrument":2,"program":0,"isDrum":true},{"pitch":42,"velocity":100,"startTime":2,"endTime":2.125,"instrument":2,"program":0,"isDrum":true},{"pitch":42,"velocity":100,"startTime":2.25,"endTime":2.375,"instrument":2,"program":0,"isDrum":true},{"pitch":42,"velocity":100,"startTime":2.375,"endTime":2.5,"instrument":2,"program":0,"isDrum":true},{"pitch":42,"velocity":100,"startTime":2.5,"endTime":2.625,"instrument":2,"program":0,"isDrum":true},{"pitch":42,"velocity":100,"startTime":2.625,"endTime":2.75,"instrument":2,"program":0,"isDrum":true},{"pitch":38,"velocity":100,"startTime":2.75,"endTime":2.875,"instrument":2,"program":0,"isDrum":true},{"pitch":42,"velocity":100,"startTime":2.75,"endTime":2.875,"instrument":2,"program":0,"isDrum":true},{"pitch":42,"velocity":100,"startTime":3,"endTime":3.125,"instrument":2,"program":0,"isDrum":true},{"pitch":42,"velocity":100,"startTime":3.25,"endTime":3.375,"instrument":2,"program":0,"isDrum":true},{"pitch":42,"velocity":100,"startTime":3.375,"endTime":3.5,"instrument":2,"program":0,"isDrum":true},{"pitch":38,"velocity":100,"startTime":3.5,"endTime":3.625,"instrument":2,"program":0,"isDrum":true},{"pitch":42,"velocity":100,"startTime":3.5,"endTime":3.625,"instrument":2,"program":0,"isDrum":true},{"pitch":46,"velocity":100,"startTime":3.75,"endTime":3.875,"instrument":2,"program":0,"isDrum":true},{"pitch":36,"velocity":100,"startTime":4,"endTime":4.125,"instrument":2,"program":0,"isDrum":true},{"pitch":42,"velocity":100,"startTime":4,"endTime":4.125,"instrument":2,"program":0,"isDrum":true},{"pitch":42,"velocity":100,"startTime":4.25,"endTime":4.375,"instrument":2,"program":0,"isDrum":true},{"pitch":42,"velocity":100,"startTime":4.375,"endTime":4.5,"instrument":2,"program":0,"isDrum":true},{"pitch":38,"velocity":100,"startTime":4.5,"endTime":4.625,"instrument":2,"program":0,"isDrum":true},{"pitch":42,"velocity":100,"startTime":4.5,"endTime":4.625,"instrument":2,"program":0,"isDrum":true},{"pitch":42,"velocity":100,"startTime":4.75,"endTime":4.875,"instrument":2,"program":0,"isDrum":true},{"pitch":42,"velocity":100,"startTime":4.875,"endTime":5,"instrument":2,"program":0,"isDrum":true},{"pitch":36,"velocity":100,"startTime":5,"endTime":5.125,"instrument":2,"program":0,"isDrum":true},{"pitch":42,"velocity":100,"startTime":5,"endTime":5.125,"instrument":2,"program":0,"isDrum":true},{"pitch":42,"velocity":100,"startTime":5.25,"endTime":5.375,"instrument":2,"program":0,"isDrum":true},{"pitch":46,"velocity":100,"startTime":5.25,"endTime":5.375,"instrument":2,"program":0,"isDrum":true},{"pitch":42,"velocity":100,"startTime":5.375,"endTime":5.5,"instrument":2,"program":0,"isDrum":true},{"pitch":38,"velocity":100,"startTime":5.5,"endTime":5.625,"instrument":2,"program":0,"isDrum":true},{"pitch":42,"velocity":100,"startTime":5.5,"endTime":5.625,"instrument":2,"program":0,"isDrum":true},{"pitch":42,"velocity":100,"startTime":5.75,"endTime":5.875,"instrument":2,"program":0,"isDrum":true},{"pitch":42,"velocity":100,"startTime":5.875,"endTime":6,"instrument":2,"program":0,"isDrum":true},{"pitch":36,"velocity":100,"startTime":6,"endTime":6.125,"instrument":2,"program":0,"isDrum":true},{"pitch":42,"velocity":100,"startTime":6,"endTime":6.125,"instrument":2,"program":0,"isDrum":true},{"pitch":42,"velocity":100,"startTime":6.25,"endTime":6.375,"instrument":2,"program":0,"isDrum":true},{"pitch":42,"velocity":100,"startTime":6.375,"endTime":6.5,"instrument":2,"program":0,"isDrum":true},{"pitch":42,"velocity":100,"startTime":6.5,"endTime":6.625,"instrument":2,"program":0,"isDrum":true},{"pitch":42,"velocity":100,"startTime":6.625,"endTime":6.75,"instrument":2,"program":0,"isDrum":true},{"pitch":36,"velocity":100,"startTime":6.75,"endTime":6.875,"instrument":2,"program":0,"isDrum":true},{"pitch":42,"velocity":100,"startTime":6.75,"endTime":6.875,"instrument":2,"program":0,"isDrum":true},{"pitch":42,"velocity":100,"startTime":6.875,"endTime":7,"instrument":2,"program":0,"isDrum":true},{"pitch":42,"velocity":100,"startTime":7,"endTime":7.125,"instrument":2,"program":0,"isDrum":true},{"pitch":42,"velocity":100,"startTime":7.25,"endTime":7.375,"instrument":2,"program":0,"isDrum":true},{"pitch":42,"velocity":100,"startTime":7.375,"endTime":7.5,"instrument":2,"program":0,"isDrum":true},{"pitch":38,"velocity":100,"startTime":7.5,"endTime":7.625,"instrument":2,"program":0,"isDrum":true},{"pitch":42,"velocity":100,"startTime":7.5,"endTime":7.625,"instrument":2,"program":0,"isDrum":true},{"pitch":42,"velocity":100,"startTime":7.625,"endTime":7.75,"instrument":2,"program":0,"isDrum":true},{"pitch":42,"velocity":100,"startTime":7.75,"endTime":7.875,"instrument":2,"program":0,"isDrum":true},{"pitch":42,"velocity":100,"startTime":7.875,"endTime":8,"instrument":2,"program":0,"isDrum":true},{"pitch":36,"velocity":100,"startTime":8,"endTime":8.125,"instrument":2,"program":0,"isDrum":true},{"pitch":42,"velocity":100,"startTime":8,"endTime":8.125,"instrument":2,"program":0,"isDrum":true},{"pitch":42,"velocity":100,"startTime":8.25,"endTime":8.375,"instrument":2,"program":0,"isDrum":true},{"pitch":42,"velocity":100,"startTime":8.375,"endTime":8.5,"instrument":2,"program":0,"isDrum":true},{"pitch":42,"velocity":100,"startTime":8.5,"endTime":8.625,"instrument":2,"program":0,"isDrum":true},{"pitch":42,"velocity":100,"startTime":8.625,"endTime":8.75,"instrument":2,"program":0,"isDrum":true},{"pitch":36,"velocity":100,"startTime":8.75,"endTime":8.875,"instrument":2,"program":0,"isDrum":true},{"pitch":42,"velocity":100,"startTime":8.75,"endTime":8.875,"instrument":2,"program":0,"isDrum":true},{"pitch":42,"velocity":100,"startTime":8.875,"endTime":9,"instrument":2,"program":0,"isDrum":true},{"pitch":42,"velocity":100,"startTime":9,"endTime":9.125,"instrument":2,"program":0,"isDrum":true},{"pitch":42,"velocity":100,"startTime":9.25,"endTime":9.375,"instrument":2,"program":0,"isDrum":true},{"pitch":46,"velocity":100,"startTime":9.25,"endTime":9.375,"instrument":2,"program":0,"isDrum":true},{"pitch":42,"velocity":100,"startTime":9.375,"endTime":9.5,"instrument":2,"program":0,"isDrum":true},{"pitch":38,"velocity":100,"startTime":9.5,"endTime":9.625,"instrument":2,"program":0,"isDrum":true},{"pitch":42,"velocity":100,"startTime":9.5,"endTime":9.625,"instrument":2,"program":0,"isDrum":true},{"pitch":42,"velocity":100,"startTime":9.625,"endTime":9.75,"instrument":2,"program":0,"isDrum":true},{"pitch":42,"velocity":100,"startTime":9.75,"endTime":9.875,"instrument":2,"program":0,"isDrum":true},{"pitch":42,"velocity":100,"startTime":9.875,"endTime":10,"instrument":2,"program":0,"isDrum":true},{"pitch":38,"velocity":100,"startTime":10.25,"endTime":10.375,"instrument":2,"program":0,"isDrum":true},{"pitch":42,"velocity":100,"startTime":10.25,"endTime":10.375,"instrument":2,"program":0,"isDrum":true},{"pitch":38,"velocity":100,"startTime":10.5,"endTime":10.625,"instrument":2,"program":0,"isDrum":true},{"pitch":38,"velocity":100,"startTime":10.75,"endTime":10.875,"instrument":2,"program":0,"isDrum":true},{"pitch":42,"velocity":100,"startTime":10.75,"endTime":10.875,"instrument":2,"program":0,"isDrum":true},{"pitch":38,"velocity":100,"startTime":10.875,"endTime":11,"instrument":2,"program":0,"isDrum":true},{"pitch":38,"velocity":100,"startTime":11,"endTime":11.125,"instrument":2,"program":0,"isDrum":true},{"pitch":38,"velocity":100,"startTime":11.25,"endTime":11.375,"instrument":2,"program":0,"isDrum":true},{"pitch":42,"velocity":100,"startTime":11.25,"endTime":11.375,"instrument":2,"program":0,"isDrum":true},{"pitch":38,"velocity":100,"startTime":11.375,"endTime":11.5,"instrument":2,"program":0,"isDrum":true},{"pitch":38,"velocity":100,"startTime":11.5,"endTime":11.625,"instrument":2,"program":0,"isDrum":true},{"pitch":38,"velocity":100,"startTime":11.75,"endTime":11.875,"instrument":2,"program":0,"isDrum":true},{"pitch":42,"velocity":100,"startTime":11.75,"endTime":11.875,"instrument":2,"program":0,"isDrum":true},{"pitch":38,"velocity":100,"startTime":11.875,"endTime":12,"instrument":2,"program":0,"isDrum":true},{"pitch":42,"velocity":100,"startTime":12.25,"endTime":12.375,"instrument":2,"program":0,"isDrum":true},{"pitch":51,"velocity":100,"startTime":12.25,"endTime":12.375,"instrument":2,"program":0,"isDrum":true},{"pitch":51,"velocity":100,"startTime":12.375,"endTime":12.5,"instrument":2,"program":0,"isDrum":true},{"pitch":38,"velocity":100,"startTime":12.5,"endTime":12.625,"instrument":2,"program":0,"isDrum":true},{"pitch":51,"velocity":100,"startTime":12.5,"endTime":12.625,"instrument":2,"program":0,"isDrum":true},{"pitch":42,"velocity":100,"startTime":12.75,"endTime":12.875,"instrument":2,"program":0,"isDrum":true},{"pitch":51,"velocity":100,"startTime":12.75,"endTime":12.875,"instrument":2,"program":0,"isDrum":true},{"pitch":51,"velocity":100,"startTime":12.875,"endTime":13,"instrument":2,"program":0,"isDrum":true},{"pitch":51,"velocity":100,"startTime":13,"endTime":13.125,"instrument":2,"program":0,"isDrum":true},{"pitch":38,"velocity":100,"startTime":13.25,"endTime":13.375,"instrument":2,"program":0,"isDrum":true},{"pitch":42,"velocity":100,"startTime":13.25,"endTime":13.375,"instrument":2,"program":0,"isDrum":true},{"pitch":51,"velocity":100,"startTime":13.25,"endTime":13.375,"instrument":2,"program":0,"isDrum":true},{"pitch":51,"velocity":100,"startTime":13.375,"endTime":13.5,"instrument":2,"program":0,"isDrum":true},{"pitch":38,"velocity":100,"startTime":13.5,"endTime":13.625,"instrument":2,"program":0,"isDrum":true},{"pitch":42,"velocity":100,"startTime":13.75,"endTime":13.875,"instrument":2,"program":0,"isDrum":true},{"pitch":51,"velocity":100,"startTime":13.75,"endTime":13.875,"instrument":2,"program":0,"isDrum":true},{"pitch":51,"velocity":100,"startTime":13.875,"endTime":14,"instrument":2,"program":0,"isDrum":true},{"pitch":51,"velocity":100,"startTime":14,"endTime":14.125,"instrument":2,"program":0,"isDrum":true},{"pitch":42,"velocity":100,"startTime":14.25,"endTime":14.375,"instrument":2,"program":0,"isDrum":true},{"pitch":51,"velocity":100,"startTime":14.25,"endTime":14.375,"instrument":2,"program":0,"isDrum":true},{"pitch":51,"velocity":100,"startTime":14.375,"endTime":14.5,"instrument":2,"program":0,"isDrum":true},{"pitch":38,"velocity":100,"startTime":14.5,"endTime":14.625,"instrument":2,"program":0,"isDrum":true},{"pitch":51,"velocity":100,"startTime":14.5,"endTime":14.625,"instrument":2,"program":0,"isDrum":true},{"pitch":42,"velocity":100,"startTime":14.75,"endTime":14.875,"instrument":2,"program":0,"isDrum":true},{"pitch":51,"velocity":100,"startTime":14.75,"endTime":14.875,"instrument":2,"program":0,"isDrum":true},{"pitch":51,"velocity":100,"startTime":14.875,"endTime":15,"instrument":2,"program":0,"isDrum":true},{"pitch":51,"velocity":100,"startTime":15,"endTime":15.125,"instrument":2,"program":0,"isDrum":true},{"pitch":42,"velocity":100,"startTime":15.25,"endTime":15.375,"instrument":2,"program":0,"isDrum":true},{"pitch":51,"velocity":100,"startTime":15.25,"endTime":15.375,"instrument":2,"program":0,"isDrum":true},{"pitch":51,"velocity":100,"startTime":15.375,"endTime":15.5,"instrument":2,"program":0,"isDrum":true},{"pitch":38,"velocity":100,"startTime":15.5,"endTime":15.625,"instrument":2,"program":0,"isDrum":true},{"pitch":51,"velocity":100,"startTime":15.5,"endTime":15.625,"instrument":2,"program":0,"isDrum":true},{"pitch":42,"velocity":100,"startTime":15.75,"endTime":15.875,"instrument":2,"program":0,"isDrum":true},{"pitch":51,"velocity":100,"startTime":15.75,"endTime":15.875,"instrument":2,"program":0,"isDrum":true},{"pitch":51,"velocity":100,"startTime":15.875,"endTime":16,"instrument":2,"program":0,"isDrum":true},{"pitch":51,"velocity":100,"startTime":16,"endTime":16.125,"instrument":2,"program":0,"isDrum":true},{"pitch":42,"velocity":100,"startTime":16.25,"endTime":16.375,"instrument":2,"program":0,"isDrum":true},{"pitch":51,"velocity":100,"startTime":16.25,"endTime":16.375,"instrument":2,"program":0,"isDrum":true},{"pitch":51,"velocity":100,"startTime":16.375,"endTime":16.5,"instrument":2,"program":0,"isDrum":true},{"pitch":38,"velocity":100,"startTime":16.5,"endTime":16.625,"instrument":2,"program":0,"isDrum":true},{"pitch":51,"velocity":100,"startTime":16.5,"endTime":16.625,"instrument":2,"program":0,"isDrum":true},{"pitch":42,"velocity":100,"startTime":16.75,"endTime":16.875,"instrument":2,"program":0,"isDrum":true},{"pitch":51,"velocity":100,"startTime":16.75,"endTime":16.875,"instrument":2,"program":0,"isDrum":true},{"pitch":51,"velocity":100,"startTime":16.875,"endTime":17,"instrument":2,"program":0,"isDrum":true},{"pitch":51,"velocity":100,"startTime":17,"endTime":17.125,"instrument":2,"program":0,"isDrum":true},{"pitch":42,"velocity":100,"startTime":17.25,"endTime":17.375,"instrument":2,"program":0,"isDrum":true},{"pitch":51,"velocity":100,"startTime":17.25,"endTime":17.375,"instrument":2,"program":0,"isDrum":true},{"pitch":51,"velocity":100,"startTime":17.375,"endTime":17.5,"instrument":2,"program":0,"isDrum":true},{"pitch":38,"velocity":100,"startTime":17.5,"endTime":17.625,"instrument":2,"program":0,"isDrum":true},{"pitch":42,"velocity":100,"startTime":17.75,"endTime":17.875,"instrument":2,"program":0,"isDrum":true},{"pitch":38,"velocity":100,"startTime":17.875,"endTime":18,"instrument":2,"program":0,"isDrum":true},{"pitch":42,"velocity":100,"startTime":18,"endTime":18.125,"instrument":2,"program":0,"isDrum":true},{"pitch":42,"velocity":100,"startTime":18.25,"endTime":18.375,"instrument":2,"program":0,"isDrum":true},{"pitch":38,"velocity":100,"startTime":18.375,"endTime":18.5,"instrument":2,"program":0,"isDrum":true},{"pitch":42,"velocity":100,"startTime":18.5,"endTime":18.625,"instrument":2,"program":0,"isDrum":true},{"pitch":38,"velocity":100,"startTime":18.75,"endTime":18.875,"instrument":2,"program":0,"isDrum":true},{"pitch":42,"velocity":100,"startTime":18.75,"endTime":18.875,"instrument":2,"program":0,"isDrum":true},{"pitch":42,"velocity":100,"startTime":19,"endTime":19.125,"instrument":2,"program":0,"isDrum":true},{"pitch":38,"velocity":100,"startTime":19.25,"endTime":19.375,"instrument":2,"program":0,"isDrum":true},{"pitch":42,"velocity":100,"startTime":19.25,"endTime":19.375,"instrument":2,"program":0,"isDrum":true},{"pitch":42,"velocity":100,"startTime":19.5,"endTime":19.625,"instrument":2,"program":0,"isDrum":true},{"pitch":38,"velocity":100,"startTime":19.75,"endTime":19.875,"instrument":2,"program":0,"isDrum":true},{"pitch":42,"velocity":100,"startTime":19.75,"endTime":19.875,"instrument":2,"program":0,"isDrum":true},{"pitch":36,"velocity":100,"startTime":20,"endTime":20.125,"instrument":2,"program":0,"isDrum":true},{"pitch":42,"velocity":100,"startTime":20,"endTime":20.125,"instrument":2,"program":0,"isDrum":true},{"pitch":42,"velocity":100,"startTime":20.25,"endTime":20.375,"instrument":2,"program":0,"isDrum":true},{"pitch":38,"velocity":100,"startTime":20.375,"endTime":20.5,"instrument":2,"program":0,"isDrum":true},{"pitch":42,"velocity":100,"startTime":20.375,"endTime":20.5,"instrument":2,"program":0,"isDrum":true},{"pitch":42,"velocity":100,"startTime":20.5,"endTime":20.625,"instrument":2,"program":0,"isDrum":true},{"pitch":42,"velocity":100,"startTime":20.625,"endTime":20.75,"instrument":2,"program":0,"isDrum":true},{"pitch":36,"velocity":100,"startTime":20.75,"endTime":20.875,"instrument":2,"program":0,"isDrum":true},{"pitch":46,"velocity":100,"startTime":20.75,"endTime":20.875,"instrument":2,"program":0,"isDrum":true},{"pitch":51,"velocity":100,"startTime":20.75,"endTime":20.875,"instrument":2,"program":0,"isDrum":true},{"pitch":36,"velocity":100,"startTime":21,"endTime":21.125,"instrument":2,"program":0,"isDrum":true},{"pitch":42,"velocity":100,"startTime":21.25,"endTime":21.375,"instrument":2,"program":0,"isDrum":true},{"pitch":42,"velocity":100,"startTime":21.375,"endTime":21.5,"instrument":2,"program":0,"isDrum":true},{"pitch":38,"velocity":100,"startTime":21.5,"endTime":21.625,"instrument":2,"program":0,"isDrum":true},{"pitch":46,"velocity":100,"startTime":21.5,"endTime":21.625,"instrument":2,"program":0,"isDrum":true},{"pitch":51,"velocity":100,"startTime":21.5,"endTime":21.625,"instrument":2,"program":0,"isDrum":true},{"pitch":42,"velocity":100,"startTime":21.75,"endTime":21.875,"instrument":2,"program":0,"isDrum":true},{"pitch":51,"velocity":100,"startTime":21.875,"endTime":22,"instrument":2,"program":0,"isDrum":true},{"pitch":36,"velocity":100,"startTime":22,"endTime":22.125,"instrument":2,"program":0,"isDrum":true},{"pitch":42,"velocity":100,"startTime":22,"endTime":22.125,"instrument":2,"program":0,"isDrum":true},{"pitch":42,"velocity":100,"startTime":22.25,"endTime":22.375,"instrument":2,"program":0,"isDrum":true},{"pitch":51,"velocity":100,"startTime":22.25,"endTime":22.375,"instrument":2,"program":0,"isDrum":true},{"pitch":51,"velocity":100,"startTime":22.375,"endTime":22.5,"instrument":2,"program":0,"isDrum":true},{"pitch":42,"velocity":100,"startTime":22.5,"endTime":22.625,"instrument":2,"program":0,"isDrum":true},{"pitch":38,"velocity":100,"startTime":22.625,"endTime":22.75,"instrument":2,"program":0,"isDrum":true},{"pitch":42,"velocity":100,"startTime":22.75,"endTime":22.875,"instrument":2,"program":0,"isDrum":true},{"pitch":51,"velocity":100,"startTime":22.75,"endTime":22.875,"instrument":2,"program":0,"isDrum":true},{"pitch":36,"velocity":100,"startTime":22.875,"endTime":23,"instrument":2,"program":0,"isDrum":true},{"pitch":51,"velocity":100,"startTime":22.875,"endTime":23,"instrument":2,"program":0,"isDrum":true},{"pitch":42,"velocity":100,"startTime":23,"endTime":23.125,"instrument":2,"program":0,"isDrum":true},{"pitch":38,"velocity":100,"startTime":23.125,"endTime":23.25,"instrument":2,"program":0,"isDrum":true},{"pitch":36,"velocity":100,"startTime":23.25,"endTime":23.375,"instrument":2,"program":0,"isDrum":true},{"pitch":42,"velocity":100,"startTime":23.25,"endTime":23.375,"instrument":2,"program":0,"isDrum":true},{"pitch":51,"velocity":100,"startTime":23.25,"endTime":23.375,"instrument":2,"program":0,"isDrum":true},{"pitch":51,"velocity":100,"startTime":23.375,"endTime":23.5,"instrument":2,"program":0,"isDrum":true},{"pitch":38,"velocity":100,"startTime":23.5,"endTime":23.625,"instrument":2,"program":0,"isDrum":true},{"pitch":42,"velocity":100,"startTime":23.5,"endTime":23.625,"instrument":2,"program":0,"isDrum":true},{"pitch":42,"velocity":100,"startTime":23.625,"endTime":23.75,"instrument":2,"program":0,"isDrum":true},{"pitch":36,"velocity":100,"startTime":23.75,"endTime":23.875,"instrument":2,"program":0,"isDrum":true},{"pitch":46,"velocity":100,"startTime":23.75,"endTime":23.875,"instrument":2,"program":0,"isDrum":true},{"pitch":51,"velocity":100,"startTime":23.75,"endTime":23.875,"instrument":2,"program":0,"isDrum":true},{"pitch":51,"velocity":100,"startTime":23.875,"endTime":24,"instrument":2,"program":0,"isDrum":true},{"pitch":42,"velocity":100,"startTime":26.25,"endTime":26.375,"instrument":2,"program":0,"isDrum":true},{"pitch":51,"velocity":100,"startTime":26.25,"endTime":26.375,"instrument":2,"program":0,"isDrum":true},{"pitch":38,"velocity":100,"startTime":26.5,"endTime":26.625,"instrument":2,"program":0,"isDrum":true},{"pitch":51,"velocity":100,"startTime":26.5,"endTime":26.625,"instrument":2,"program":0,"isDrum":true},{"pitch":42,"velocity":100,"startTime":26.75,"endTime":26.875,"instrument":2,"program":0,"isDrum":true},{"pitch":51,"velocity":100,"startTime":26.75,"endTime":26.875,"instrument":2,"program":0,"isDrum":true},{"pitch":36,"velocity":100,"startTime":26.875,"endTime":27,"instrument":2,"program":0,"isDrum":true},{"pitch":38,"velocity":100,"startTime":26.875,"endTime":27,"instrument":2,"program":0,"isDrum":true},{"pitch":51,"velocity":100,"startTime":26.875,"endTime":27,"instrument":2,"program":0,"isDrum":true},{"pitch":38,"velocity":100,"startTime":27.25,"endTime":27.375,"instrument":2,"program":0,"isDrum":true},{"pitch":42,"velocity":100,"startTime":27.25,"endTime":27.375,"instrument":2,"program":0,"isDrum":true},{"pitch":51,"velocity":100,"startTime":27.25,"endTime":27.375,"instrument":2,"program":0,"isDrum":true},{"pitch":51,"velocity":100,"startTime":27.5,"endTime":27.625,"instrument":2,"program":0,"isDrum":true},{"pitch":38,"velocity":100,"startTime":27.75,"endTime":27.875,"instrument":2,"program":0,"isDrum":true},{"pitch":42,"velocity":100,"startTime":27.75,"endTime":27.875,"instrument":2,"program":0,"isDrum":true},{"pitch":51,"velocity":100,"startTime":27.75,"endTime":27.875,"instrument":2,"program":0,"isDrum":true},{"pitch":51,"velocity":100,"startTime":28,"endTime":28.125,"instrument":2,"program":0,"isDrum":true},{"pitch":51,"velocity":100,"startTime":28.125,"endTime":28.25,"instrument":2,"program":0,"isDrum":true},{"pitch":42,"velocity":100,"startTime":28.25,"endTime":28.375,"instrument":2,"program":0,"isDrum":true},{"pitch":51,"velocity":100,"startTime":28.25,"endTime":28.375,"instrument":2,"program":0,"isDrum":true},{"pitch":38,"velocity":100,"startTime":28.375,"endTime":28.5,"instrument":2,"program":0,"isDrum":true},{"pitch":51,"velocity":100,"startTime":28.375,"endTime":28.5,"instrument":2,"program":0,"isDrum":true},{"pitch":38,"velocity":100,"startTime":28.5,"endTime":28.625,"instrument":2,"program":0,"isDrum":true},{"pitch":51,"velocity":100,"startTime":28.5,"endTime":28.625,"instrument":2,"program":0,"isDrum":true},{"pitch":51,"velocity":100,"startTime":28.625,"endTime":28.75,"instrument":2,"program":0,"isDrum":true},{"pitch":42,"velocity":100,"startTime":28.75,"endTime":28.875,"instrument":2,"program":0,"isDrum":true},{"pitch":51,"velocity":100,"startTime":28.75,"endTime":28.875,"instrument":2,"program":0,"isDrum":true},{"pitch":51,"velocity":100,"startTime":28.875,"endTime":29,"instrument":2,"program":0,"isDrum":true},{"pitch":51,"velocity":100,"startTime":29,"endTime":29.125,"instrument":2,"program":0,"isDrum":true},{"pitch":51,"velocity":100,"startTime":29.125,"endTime":29.25,"instrument":2,"program":0,"isDrum":true},{"pitch":38,"velocity":100,"startTime":29.25,"endTime":29.375,"instrument":2,"program":0,"isDrum":true},{"pitch":42,"velocity":100,"startTime":29.25,"endTime":29.375,"instrument":2,"program":0,"isDrum":true},{"pitch":51,"velocity":100,"startTime":29.25,"endTime":29.375,"instrument":2,"program":0,"isDrum":true},{"pitch":38,"velocity":100,"startTime":29.375,"endTime":29.5,"instrument":2,"program":0,"isDrum":true},{"pitch":51,"velocity":100,"startTime":29.375,"endTime":29.5,"instrument":2,"program":0,"isDrum":true},{"pitch":51,"velocity":100,"startTime":29.5,"endTime":29.625,"instrument":2,"program":0,"isDrum":true},{"pitch":38,"velocity":100,"startTime":29.625,"endTime":29.75,"instrument":2,"program":0,"isDrum":true},{"pitch":38,"velocity":100,"startTime":29.75,"endTime":29.875,"instrument":2,"program":0,"isDrum":true},{"pitch":42,"velocity":100,"startTime":29.75,"endTime":29.875,"instrument":2,"program":0,"isDrum":true},{"pitch":51,"velocity":100,"startTime":29.75,"endTime":29.875,"instrument":2,"program":0,"isDrum":true},{"pitch":51,"velocity":100,"startTime":29.875,"endTime":30,"instrument":2,"program":0,"isDrum":true},{"pitch":51,"velocity":100,"startTime":30,"endTime":30.125,"instrument":2,"program":0,"isDrum":true},{"pitch":51,"velocity":100,"startTime":30.125,"endTime":30.25,"instrument":2,"program":0,"isDrum":true},{"pitch":42,"velocity":100,"startTime":30.25,"endTime":30.375,"instrument":2,"program":0,"isDrum":true},{"pitch":51,"velocity":100,"startTime":30.25,"endTime":30.375,"instrument":2,"program":0,"isDrum":true},{"pitch":51,"velocity":100,"startTime":30.375,"endTime":30.5,"instrument":2,"program":0,"isDrum":true},{"pitch":38,"velocity":100,"startTime":30.5,"endTime":30.625,"instrument":2,"program":0,"isDrum":true},{"pitch":51,"velocity":100,"startTime":30.5,"endTime":30.625,"instrument":2,"program":0,"isDrum":true},{"pitch":51,"velocity":100,"startTime":30.625,"endTime":30.75,"instrument":2,"program":0,"isDrum":true},{"pitch":36,"velocity":100,"startTime":30.75,"endTime":30.875,"instrument":2,"program":0,"isDrum":true},{"pitch":46,"velocity":100,"startTime":30.75,"endTime":30.875,"instrument":2,"program":0,"isDrum":true},{"pitch":51,"velocity":100,"startTime":30.75,"endTime":30.875,"instrument":2,"program":0,"isDrum":true},{"pitch":51,"velocity":100,"startTime":30.875,"endTime":31,"instrument":2,"program":0,"isDrum":true},{"pitch":51,"velocity":100,"startTime":31,"endTime":31.125,"instrument":2,"program":0,"isDrum":true},{"pitch":51,"velocity":100,"startTime":31.125,"endTime":31.25,"instrument":2,"program":0,"isDrum":true},{"pitch":36,"velocity":100,"startTime":31.25,"endTime":31.375,"instrument":2,"program":0,"isDrum":true},{"pitch":42,"velocity":100,"startTime":31.25,"endTime":31.375,"instrument":2,"program":0,"isDrum":true},{"pitch":51,"velocity":100,"startTime":31.25,"endTime":31.375,"instrument":2,"program":0,"isDrum":true},{"pitch":51,"velocity":100,"startTime":31.375,"endTime":31.5,"instrument":2,"program":0,"isDrum":true},{"pitch":38,"velocity":100,"startTime":31.5,"endTime":31.625,"instrument":2,"program":0,"isDrum":true},{"pitch":51,"velocity":100,"startTime":31.5,"endTime":31.625,"instrument":2,"program":0,"isDrum":true},{"pitch":51,"velocity":100,"startTime":31.625,"endTime":31.75,"instrument":2,"program":0,"isDrum":true},{"pitch":36,"velocity":100,"startTime":31.75,"endTime":31.875,"instrument":2,"program":0,"isDrum":true},{"pitch":46,"velocity":100,"startTime":31.75,"endTime":31.875,"instrument":2,"program":0,"isDrum":true},{"pitch":51,"velocity":100,"startTime":31.75,"endTime":31.875,"instrument":2,"program":0,"isDrum":true}],"totalTime":31.875,"sourceInfo":{"encodingType":"MIDI","parser":"TONEJS_MIDI_CONVERT"}}');
 
    wrapper.addEventListener('mouseenter', doTheThing);
    wrapper.addEventListener('mouseleave', doTheThing);
    wrapper.addEventListener('click', doTheThing);
    
    function doTheThing() {
      if (player.isPlaying()) {
        player.stop();
        mm.Player.tone.Transport.stop();
        one.classList.remove('dance-one');
        two.classList.remove('dance-two');     
      } else {
        mm.Player.tone.context.resume();
        mm.Player.tone.Transport.start();
        player.start(seq);
        one.classList.add('dance-one');
        two.classList.add('dance-two');   
      }
    }
  </script>
</html>
